<?xml version="1.0" encoding="UTF-8" standalone="no"?>
<svg width="773px" height="144px" viewBox="0 0 773 144" version="1.1" xmlns="http://www.w3.org/2000/svg" xmlns:xlink="http://www.w3.org/1999/xlink">
    <!-- Generator: Sketch 39.1 (31720) - http://www.bohemiancoding.com/sketch -->
    <title>Group</title>
    <desc>Created with Sketch.</desc>
    <defs></defs>
    <g id="Page-1" stroke="none" stroke-width="1" fill="none" fill-rule="evenodd">
        <g id="LogoApps" transform="translate(0.000000, -863.000000)">
            <g id="Group" transform="translate(0.000000, 863.000000)">
                <path d="M530.8271,115.3918 C529.2601,115.3918 528.3001,114.6708 527.9221,113.1968 L526.8251,103.2088 C524.6761,105.2958 522.5371,107.1938 520.4231,108.8738 C518.3061,110.5558 516.0891,111.9608 513.7791,113.1058 C511.4811,114.2588 508.9881,115.1518 506.3131,115.7348 C503.6481,116.3398 500.7111,116.6498 497.5101,116.6498 C494.8451,116.6498 492.2611,116.2488 489.7461,115.4718 C487.2311,114.6948 485.0141,113.4828 483.0691,111.8588 C481.1251,110.2238 479.5701,108.1548 478.3921,105.6048 C477.2151,103.0668 476.6331,100.0188 476.6331,96.4578 C476.6331,93.1538 477.5691,90.0958 479.4561,87.2648 C481.3311,84.4298 484.2921,81.9718 488.2941,79.8788 C492.2961,77.7848 497.4531,76.1118 503.7641,74.8458 C510.0741,73.5938 517.6551,72.8618 526.5051,72.6518 L526.5051,64.4838 C526.5051,57.2558 524.9491,51.6928 521.8391,47.7878 C518.7191,43.8838 514.0881,41.9338 507.9711,41.9338 C504.2101,41.9338 500.9971,42.4638 498.3441,43.5038 C495.7031,44.5528 493.4731,45.7098 491.6211,46.9648 C489.7921,48.2228 488.3051,49.3688 487.1501,50.4178 C485.9961,51.4698 485.0351,51.9868 484.2461,51.9868 C483.1941,51.9868 482.4051,51.5178 481.8911,50.5808 L480.5531,48.2968 C484.6351,44.2128 488.9331,41.1228 493.4381,39.0248 C497.9431,36.9408 503.0441,35.8888 508.7601,35.8888 C512.9441,35.8888 516.6141,36.5498 519.7601,37.8898 C522.8911,39.2248 525.4991,41.1348 527.5791,43.6268 C529.6371,46.1108 531.1931,49.1228 532.2441,52.6588 C533.2851,56.1948 533.8221,60.1368 533.8221,64.4838 L533.8221,115.3918 L530.8271,115.3918 Z M499.4081,111.2188 C502.4491,111.2188 505.2261,110.8988 507.7761,110.2358 C510.3141,109.5958 512.6711,108.6808 514.8431,107.4918 C517.0151,106.3138 519.0511,104.9188 520.9361,103.2948 C522.8231,101.6598 524.6761,99.9108 526.5051,98.0248 L526.5051,77.6838 C519.0841,77.8958 512.6711,78.4538 507.3071,79.3708 C501.9231,80.2908 497.5101,81.5318 494.0211,83.1028 C490.5471,84.6698 487.9731,86.5448 486.3271,88.7178 C484.6811,90.8898 483.8581,93.3598 483.8581,96.1438 C483.8581,98.7678 484.2921,101.0318 485.1501,102.9298 C486.0071,104.8388 487.1501,106.4278 488.5681,107.6518 C489.9741,108.8868 491.6211,109.7888 493.5081,110.3618 C495.4061,110.9448 497.3721,111.2188 499.4081,111.2188 L499.4081,111.2188 Z" id="Fill-1" fill="#171424"></path>
                <path d="M557.3867,143.0383 L557.3867,37.2263 L561.4687,37.2263 C562.1437,37.2263 562.7027,37.3603 563.1267,37.6463 C563.5367,37.9473 563.7787,38.4503 563.8237,39.1873 L564.5327,51.2813 C567.9857,46.5733 572.0217,42.8293 576.6627,40.0473 C581.3177,37.2783 586.4967,35.8863 592.2587,35.8863 C601.8977,35.8863 609.3977,39.2163 614.7377,45.8593 C620.0767,52.5103 622.7407,62.4923 622.7407,75.7923 C622.7407,81.5053 621.9967,86.8253 620.4997,91.7693 C619.0137,96.7263 616.8287,101.0313 613.9487,104.6553 C611.0557,108.3033 607.5227,111.1843 603.3037,113.2663 C599.0847,115.3573 594.2137,116.4093 588.7377,116.4093 C583.3747,116.4093 578.7797,115.4373 574.9037,113.4933 C571.0267,111.5613 567.6777,108.6813 564.8417,104.8613 L564.8417,143.0383 L557.3867,143.0383 Z M590.1437,41.9373 C584.9637,41.9373 580.2537,43.2843 576.0457,45.9813 C571.8267,48.6833 568.0877,52.4333 564.8417,57.2583 L564.8417,98.2653 C567.8247,102.7693 571.1417,105.9363 574.7877,107.7773 C578.4367,109.6063 582.5747,110.5213 587.2407,110.5213 C591.8467,110.5213 595.8837,109.6863 599.3357,108.0053 C602.8007,106.3373 605.6817,103.9463 608.0147,100.9003 C610.3467,97.8293 612.1077,94.1603 613.2847,89.9003 C614.4507,85.6303 615.0577,80.9263 615.0577,75.7923 C615.0577,64.1613 612.9197,55.6183 608.6437,50.1463 C604.3677,44.6673 598.2157,41.9373 590.1437,41.9373 L590.1437,41.9373 Z" id="Fill-3" fill="#171424"></path>
                <path d="M641.4346,143.0383 L641.4346,37.2263 L645.5276,37.2263 C646.2026,37.2263 646.7516,37.3603 647.1746,37.6463 C647.5976,37.9473 647.8366,38.4503 647.8726,39.1873 L648.5916,51.2813 C652.0446,46.5733 656.0926,42.8293 660.7236,40.0473 C665.3656,37.2783 670.5556,35.8863 676.3306,35.8863 C685.9456,35.8863 693.4466,39.2163 698.7866,45.8593 C704.1246,52.5103 706.8006,62.4923 706.8006,75.7923 C706.8006,81.5053 706.0686,86.8253 704.5586,91.7693 C703.0726,96.7263 700.8886,101.0313 698.0076,104.6553 C695.1256,108.3033 691.5716,111.1843 687.3636,113.2663 C683.1446,115.3573 678.2856,116.4093 672.7856,116.4093 C667.4456,116.4093 662.8266,115.4373 658.9626,113.4933 C655.0976,111.5613 651.7356,108.6813 648.9126,104.8613 L648.9126,143.0383 L641.4346,143.0383 Z M674.1916,41.9373 C669.0236,41.9373 664.3136,43.2843 660.0946,45.9813 C655.8866,48.6833 652.1586,52.4333 648.9126,57.2583 L648.9126,98.2653 C651.8956,102.7693 655.2006,105.9363 658.8366,107.7773 C662.4836,109.6063 666.6346,110.5213 671.2876,110.5213 C675.9076,110.5213 679.9306,109.6863 683.3966,108.0053 C686.8476,106.3373 689.7416,103.9463 692.0846,100.9003 C694.4066,97.8293 696.1436,94.1603 697.3326,89.9003 C698.5106,85.6303 699.1056,80.9263 699.1056,75.7923 C699.1056,64.1613 696.9666,55.6183 692.7036,50.1463 C688.4376,44.6673 682.2636,41.9373 674.1916,41.9373 L674.1916,41.9373 Z" id="Fill-5" fill="#171424"></path>
                <path d="M768.5527,46.968 C768.1757,47.7 767.6037,48.063 766.8147,48.063 C766.2537,48.063 765.4987,47.74 764.5847,47.077 C763.6577,46.427 762.4577,45.69 760.9727,44.882 C759.4747,44.07 757.6447,43.338 755.4727,42.68 C753.2887,42.026 750.6357,41.697 747.4917,41.697 C744.6677,41.697 742.0837,42.109 739.7627,42.915 C737.4187,43.724 735.4417,44.807 733.7827,46.165 C732.1367,47.529 730.8447,49.103 729.9427,50.907 C729.0147,52.705 728.5587,54.606 728.5587,56.584 C728.5587,59.044 729.1877,61.08 730.4447,62.703 C731.7017,64.313 733.3607,65.699 735.3947,66.854 C737.4307,67.994 739.7627,68.989 742.3577,69.821 C744.9417,70.663 747.5947,71.501 750.3157,72.344 C753.0377,73.182 755.7007,74.106 758.2847,75.123 C760.8927,76.149 763.2137,77.418 765.2477,78.943 C767.2937,80.456 768.9417,82.316 770.1987,84.51 C771.4557,86.705 772.0737,89.381 772.0737,92.525 C772.0737,95.932 771.4687,99.099 770.2337,102.037 C769.0217,104.965 767.2267,107.515 764.8947,109.663 C762.5617,111.802 759.7017,113.493 756.2957,114.751 C752.8887,116.021 749.0127,116.65 744.6677,116.65 C739.1687,116.65 734.4237,115.781 730.4447,114.008 C726.4657,112.26 722.9097,109.973 719.7657,107.137 L721.5617,104.462 C721.8347,104.062 722.1207,103.73 722.4417,103.524 C722.7487,103.318 723.1967,103.203 723.7677,103.203 C724.4427,103.203 725.2877,103.632 726.2937,104.462 C727.2777,105.308 728.5697,106.21 730.1807,107.172 C731.7717,108.155 733.7597,109.047 736.1377,109.893 C738.5167,110.739 741.4667,111.15 744.9767,111.15 C748.2807,111.15 751.1967,110.693 753.6997,109.767 C756.2157,108.852 758.3087,107.606 759.9887,106.039 C761.6697,104.462 762.9387,102.62 763.7967,100.506 C764.6537,98.367 765.0997,96.138 765.0997,93.783 C765.0997,91.164 764.4587,88.987 763.2137,87.265 C761.9547,85.533 760.2977,84.07 758.2517,82.869 C756.2157,81.663 753.8947,80.64 751.2997,79.802 C748.7157,78.965 746.0397,78.121 743.2957,77.289 C740.5407,76.452 737.8647,75.541 735.2697,74.54 C732.6867,73.543 730.3647,72.29 728.3287,70.77 C726.2937,69.252 724.6357,67.408 723.3777,65.225 C722.1207,63.052 721.4917,60.343 721.4917,57.095 C721.4917,54.32 722.0867,51.65 723.2867,49.08 C724.5117,46.522 726.2137,44.261 728.4547,42.323 C730.6727,40.393 733.3827,38.842 736.5847,37.696 C739.7737,36.541 743.3527,35.967 747.3317,35.967 C752.1107,35.967 756.3287,36.653 760.0237,38.039 C763.7167,39.416 767.1127,41.523 770.1987,44.372 L768.5527,46.968 Z" id="Fill-7" fill="#171424"></path>
                <path d="M0.2256,116.9924 L0.2256,0.2624 L19.6366,0.2624 L19.6366,46.2934 C22.8376,42.8914 26.4456,40.1814 30.4786,38.1614 C34.5066,36.1464 39.2306,35.1404 44.6216,35.1404 C49.0126,35.1404 53.0396,36.0434 56.6866,37.8494 C60.3166,39.6594 63.4666,42.2884 66.0996,45.7474 C68.7586,49.2004 70.7906,53.4674 72.2346,58.5504 C73.6746,63.6324 74.3946,69.4694 74.3946,76.0724 C74.3946,82.0864 73.5746,87.6664 71.9586,92.7994 C70.3386,97.9324 68.0266,102.3864 65.0046,106.1534 C61.9946,109.9154 58.3566,112.8764 54.0946,114.9914 C49.8216,117.1184 45.0416,118.1704 39.7516,118.1704 C37.2876,118.1704 35.0326,117.9304 32.9916,117.4274 C30.9536,116.9354 29.0926,116.2384 27.4176,115.3574 C25.7306,114.4544 24.1786,113.3794 22.7406,112.0874 C21.2946,110.8074 19.9316,109.3774 18.6196,107.8114 L17.7586,113.2304 C17.4416,114.5914 16.9036,115.5634 16.1436,116.1364 C15.3866,116.7184 14.3516,116.9924 13.0396,116.9924 L0.2256,116.9924 Z M37.9416,50.2264 C33.9026,50.2264 30.4666,51.0704 27.6116,52.7734 C24.7586,54.4764 22.1066,56.8694 19.6366,59.9684 L19.6366,96.0964 C21.8316,98.8244 24.2326,100.7284 26.8256,101.7984 C29.4236,102.8784 32.2336,103.4154 35.2716,103.4154 C38.1936,103.4154 40.8466,102.8604 43.2046,101.7524 C45.5596,100.6534 47.5656,98.9844 49.2126,96.7214 C50.8676,94.4694 52.1336,91.6334 53.0286,88.2034 C53.9176,84.7724 54.3636,80.7314 54.3636,76.0724 C54.3636,71.3524 53.9766,67.3594 53.2226,64.0894 C52.4656,60.8164 51.3816,58.1584 49.9676,56.1204 C48.5486,54.0764 46.8336,52.5784 44.8166,51.6354 C42.7956,50.6954 40.5056,50.2264 37.9416,50.2264 L37.9416,50.2264 Z" id="Fill-9" fill="#171424"></path>
                <path d="M113.123,12.905 C113.123,14.585 112.783,16.155 112.111,17.618 C111.419,19.093 110.525,20.371 109.393,21.471 C108.269,22.566 106.94,23.449 105.425,24.098 C103.908,24.756 102.287,25.082 100.56,25.082 C98.879,25.082 97.293,24.756 95.807,24.098 C94.31,23.449 93.002,22.566 91.908,21.471 C90.819,20.371 89.93,19.093 89.284,17.618 C88.623,16.155 88.295,14.585 88.295,12.905 C88.295,11.178 88.623,9.558 89.284,8.043 C89.93,6.519 90.819,5.213 91.908,4.113 C93.002,3.012 94.31,2.134 95.807,1.48 C97.293,0.822 98.879,0.496 100.56,0.496 C102.287,0.496 103.908,0.822 105.425,1.48 C106.94,2.134 108.269,3.012 109.393,4.113 C110.525,5.213 111.419,6.519 112.111,8.043 C112.783,9.558 113.123,11.178 113.123,12.905 L113.123,12.905 Z M90.82,116.992 L110.219,116.992 L110.219,36.397 L90.82,36.397 L90.82,116.992 Z" id="Fill-11" fill="#171424"></path>
                <path d="M132.1372,116.9924 L132.1372,36.4004 L143.9962,36.4004 C146.5092,36.4004 148.1582,37.5754 148.9502,39.9334 L150.2852,46.2934 C151.9112,44.6234 153.6262,43.1004 155.4352,41.7374 C157.2332,40.3794 159.1512,39.1954 161.1612,38.2074 C163.1792,37.2064 165.3342,36.4464 167.6462,35.9204 C169.9472,35.4034 172.4572,35.1404 175.1812,35.1404 C179.5832,35.1404 183.4932,35.8884 186.8942,37.3784 C190.3022,38.8704 193.1402,40.9654 195.4132,43.6634 C197.6942,46.3624 199.4142,49.5834 200.5982,53.3274 C201.7812,57.0754 202.3732,61.1914 202.3732,65.6994 L202.3732,116.9924 L182.9672,116.9924 L182.9672,65.6994 C182.9672,60.7744 181.8242,56.9644 179.5492,54.2704 C177.2652,51.5734 173.8462,50.2264 169.2902,50.2264 C165.9372,50.2264 162.7992,50.9864 159.8712,52.4994 C156.9332,54.0194 154.1582,56.0924 151.5422,58.7074 L151.5422,116.9924 L132.1372,116.9924 Z" id="Fill-13" fill="#171424"></path>
                <path d="M284.6201,116.9924 L275.8911,116.9924 C274.0641,116.9924 272.6261,116.7184 271.5831,116.1694 C270.5341,115.6324 269.7451,114.5124 269.2191,112.8304 L267.4981,107.1134 C265.4491,108.9314 263.4451,110.5444 261.4791,111.9384 C259.5171,113.3224 257.4861,114.4774 255.3911,115.4274 C253.3011,116.3754 251.0771,117.0844 248.7101,117.5524 C246.3581,118.0214 243.7421,118.2614 240.8611,118.2614 C237.4601,118.2614 234.3161,117.8044 231.4371,116.8784 C228.5501,115.9524 226.0801,114.5804 224.0081,112.7394 C221.9351,110.8984 220.3381,108.6114 219.1781,105.8904 C218.0251,103.1464 217.4451,99.9684 217.4451,96.3494 C217.4451,93.2914 218.2481,90.2894 219.8471,87.3284 C221.4441,84.3554 224.0971,81.6684 227.8241,79.2784 C231.5371,76.8844 236.4881,74.9114 242.6651,73.3304 C248.8481,71.7504 256.5221,70.9674 265.6891,70.9674 L265.6891,66.2074 C265.6891,60.7744 264.5461,56.7524 262.2701,54.1424 C259.9861,51.5274 256.6791,50.2264 252.3341,50.2264 C249.1851,50.2264 246.5691,50.5894 244.4791,51.3214 C242.3791,52.0534 240.5641,52.8854 239.0171,53.8024 C237.4711,54.7174 236.0501,55.5404 234.7331,56.2714 C233.4271,57.0044 231.9741,57.3664 230.4111,57.3664 C229.1021,57.3664 227.9841,57.0354 227.0401,56.3554 C226.0921,55.6634 225.3311,54.8344 224.7571,53.8364 L221.2151,47.6284 C230.4821,39.1444 241.6641,34.9054 254.7641,34.9054 C259.4831,34.9054 263.6851,35.6804 267.3721,37.2234 C271.0681,38.7704 274.1931,40.9194 276.7621,43.6634 C279.3271,46.4104 281.2841,49.7004 282.6161,53.5224 C283.9511,57.3494 284.6201,61.5374 284.6201,66.0964 L284.6201,116.9924 Z M246.9101,104.9074 C248.8991,104.9074 250.7371,104.7134 252.4121,104.3694 C254.0781,103.9924 255.6731,103.4554 257.1651,102.7234 C258.6461,102.0094 260.0921,101.1224 261.4791,100.0704 C262.8731,99.0134 264.2711,97.7624 265.6891,96.3264 L265.6891,82.8184 C260.0331,82.8184 255.3051,83.1894 251.5021,83.8914 C247.7101,84.6074 244.6541,85.5154 242.3481,86.6304 C240.0521,87.7224 238.4091,89.0254 237.4421,90.5064 C236.4761,91.9814 235.9901,93.5774 235.9901,95.3254 C235.9901,98.7504 237.0021,101.2084 239.0171,102.6894 C241.0301,104.1644 243.6601,104.9074 246.9101,104.9074 L246.9101,104.9074 Z" id="Fill-15" fill="#171424"></path>
                <path d="M303.7109,116.9924 L303.7109,36.4004 L315.0959,36.4004 C317.0939,36.4004 318.4749,36.7694 319.2579,37.5014 C320.0559,38.2324 320.5699,39.4904 320.8329,41.2624 L322.0169,51.0104 C324.9029,46.0414 328.2739,42.1054 332.1489,39.2274 C336.0199,36.3464 340.3669,34.9054 345.1869,34.9054 C349.1739,34.9054 352.4689,35.8204 355.0849,37.6524 L352.5759,52.1934 C352.4149,53.1304 352.0689,53.8024 351.5439,54.1884 C351.0229,54.5824 350.3259,54.7744 349.4369,54.7744 C348.6449,54.7744 347.5729,54.5944 346.2099,54.2254 C344.8399,53.8624 343.0429,53.6794 340.7849,53.6794 C336.7569,53.6794 333.2959,54.7914 330.4169,57.0234 C327.5359,59.2474 325.0999,62.5034 323.1169,66.7944 L323.1169,116.9924 L303.7109,116.9924 Z" id="Fill-17" fill="#171424"></path>
                <path d="M379.3408,45.9929 C379.3408,44.6359 379.5868,43.3489 380.0898,42.1429 C380.5758,40.9429 381.2678,39.8939 382.1338,38.9989 C382.9948,38.1099 384.0288,37.4009 385.2238,36.8809 C386.4428,36.3579 387.7168,36.0949 389.0878,36.0949 C390.4548,36.0949 391.7348,36.3579 392.9298,36.8809 C394.1388,37.4009 395.1918,38.1099 396.0828,38.9989 C396.9628,39.8939 397.6608,40.9429 398.1638,42.1429 C398.6438,43.3489 398.9068,44.6359 398.9068,45.9929 C398.9068,47.4109 398.6438,48.7059 398.1638,49.8809 C397.6608,51.0579 396.9628,52.0989 396.0828,52.9909 C395.1918,53.8739 394.1388,54.5709 392.9298,55.0689 C391.7348,55.5659 390.4548,55.8179 389.0878,55.8179 C387.7168,55.8179 386.4428,55.5659 385.2238,55.0689 C384.0288,54.5709 382.9948,53.8739 382.1338,52.9909 C381.2678,52.0989 380.5758,51.0579 380.0898,49.8809 C379.5868,48.7059 379.3408,47.4109 379.3408,45.9929 M379.3408,104.9079 C379.3408,103.5469 379.5868,102.2669 380.0898,101.0659 C380.5758,99.8539 381.2678,98.8069 382.1338,97.9219 C382.9948,97.0249 384.0288,96.3259 385.2238,95.8059 C386.4428,95.2799 387.7168,95.0169 389.0878,95.0169 C390.4548,95.0169 391.7348,95.2799 392.9298,95.8059 C394.1388,96.3259 395.1918,97.0249 396.0828,97.9219 C396.9628,98.8069 397.6608,99.8539 398.1638,101.0659 C398.6438,102.2669 398.9068,103.5469 398.9068,104.9079 C398.9068,106.3369 398.6438,107.6279 398.1638,108.8069 C397.6608,109.9839 396.9628,111.0129 396.0828,111.9159 C395.1918,112.7959 394.1388,113.4929 392.9298,113.9859 C391.7348,114.4779 390.4548,114.7289 389.0878,114.7289 C387.7168,114.7289 386.4428,114.4779 385.2238,113.9859 C384.0288,113.4929 382.9948,112.7959 382.1338,111.9159 C381.2678,111.0129 380.5758,109.9839 380.0898,108.8069 C379.5868,107.6279 379.3408,106.3369 379.3408,104.9079" id="Fill-19" fill="#DD3D48"></path>
                <path d="M432.5566,45.9929 C432.5566,44.6359 432.7946,43.3489 433.2986,42.1429 C433.8016,40.9429 434.4766,39.8939 435.3446,38.9989 C436.2026,38.1099 437.2436,37.4009 438.4446,36.8809 C439.6446,36.3579 440.9246,36.0949 442.3076,36.0949 C443.6576,36.0949 444.9376,36.3579 446.1386,36.8809 C447.3506,37.4009 448.3906,38.1099 449.2936,38.9989 C450.1856,39.8939 450.8616,40.9429 451.3746,42.1429 C451.8676,43.3489 452.1196,44.6359 452.1196,45.9929 C452.1196,47.4109 451.8676,48.7059 451.3746,49.8809 C450.8616,51.0579 450.1856,52.0989 449.2936,52.9909 C448.3906,53.8739 447.3506,54.5709 446.1386,55.0689 C444.9376,55.5659 443.6576,55.8179 442.3076,55.8179 C440.9246,55.8179 439.6446,55.5659 438.4446,55.0689 C437.2436,54.5709 436.2026,53.8739 435.3446,52.9909 C434.4766,52.0989 433.8016,51.0579 433.2986,49.8809 C432.7946,48.7059 432.5566,47.4109 432.5566,45.9929 M432.5566,104.9079 C432.5566,103.5469 432.7946,102.2669 433.2986,101.0659 C433.8016,99.8539 434.4766,98.8069 435.3446,97.9219 C436.2026,97.0249 437.2436,96.3259 438.4446,95.8059 C439.6446,95.2799 440.9246,95.0169 442.3076,95.0169 C443.6576,95.0169 444.9376,95.2799 446.1386,95.8059 C447.3506,96.3259 448.3906,97.0249 449.2936,97.9219 C450.1856,98.8069 450.8616,99.8539 451.3746,101.0659 C451.8676,102.2669 452.1196,103.5469 452.1196,104.9079 C452.1196,106.3369 451.8676,107.6279 451.3746,108.8069 C450.8616,109.9839 450.1856,111.0129 449.2936,111.9159 C448.3906,112.7959 447.3506,113.4929 446.1386,113.9859 C444.9376,114.4779 443.6576,114.7289 442.3076,114.7289 C440.9246,114.7289 439.6446,114.4779 438.4446,113.9859 C437.2436,113.4929 436.2026,112.7959 435.3446,111.9159 C434.4766,111.0129 433.8016,109.9839 433.2986,108.8069 C432.7946,107.6279 432.5566,106.3369 432.5566,104.9079" id="Fill-21" fill="#DD3D48"></path>
            </g>
        </g>
    </g>
</svg>