<?xml version="1.0" encoding="utf-8"?>
<!-- Generator: Adobe Illustrator 21.1.0, SVG Export Plug-In . SVG Version: 6.00 Build 0)  -->
<svg version="1.1" id="Layer_1" xmlns="http://www.w3.org/2000/svg" xmlns:xlink="http://www.w3.org/1999/xlink" x="0px" y="0px"
	 viewBox="0 0 612 703" style="enable-background:new 0 0 612 703;" xml:space="preserve">
<style type="text/css">
	.st0{fill:none;}
	.st1{fill:#373657;}
	.st2{font-family:'Volte Rounded', 'VolteRounded-Bold'; font-weight: 600;}
	.st3{font-size:41px;}
</style>
<polygon id="background" class="st0" points="10.7,179.8 305.8,9.3 600.9,179.8 600.9,520.6 305.8,691 10.7,520.6 "/>
<g id="foreground" transform="translate(-512.60001,-9.5)">
	<path id="top-stripes" class="st1" d="M940.7,133.2L820,63.5l0,0c-0.2-0.2-0.3-0.2-0.5-0.2l0,0l0,0h-0.2h-0.2c-0.2,0-0.3,0-0.5,0
		c0,0,0,0-0.2,0h-0.2c-0.2,0-0.5,0-0.6,0l0,0l0,0l0,0c-0.2,0-0.3,0.2-0.5,0.2l0,0L698.3,132c-1.4,0.8-1.9,2.5-1.1,4
		c0.8,1.4,2.7,1.9,4,1.1L807,76.2l-44.9,57.3c-1,1.3-0.8,3.2,0.5,4.1s3.2,0.8,4.1-0.5l49-62.5v61.1c0,1.6,1.3,3,3,3s3-1.3,3-3V74.6
		l49,62.5c0.6,0.8,1.4,1.1,2.4,1.1c0.6,0,1.3-0.2,1.7-0.6c1.3-1,1.4-2.9,0.5-4.1l-44.9-57.3l107.5,62c0.5,0.3,1,0.3,1.4,0.3
		c1,0,2.1-0.5,2.5-1.4C942.7,135.9,942.2,134,940.7,133.2L940.7,133.2z"/>
	<path id="bottom-stripes" class="st1" d="M940,583.1c-0.8-1.4-2.7-1.9-4-1.1l-105.4,60.9l44.9-57.3c1-1.3,0.8-3.2-0.5-4.1
		c-1.3-1-3.2-0.8-4.1,0.5l-49,62.5v-61.1c0-1.6-1.3-3-3-3s-3,1.3-3,3v61.1l-49-62.5c-1-1.3-2.9-1.4-4.1-0.5c-1.3,1-1.4,2.9-0.5,4.1
		l44.9,57.3l-107.5-62c-1.4-0.8-3.2-0.3-4,1.1s-0.3,3.2,1.1,4l120.7,69.7c0,0,0,0,0.2,0s0.2,0.2,0.3,0.2c0,0,0,0,0.2,0
		c0,0,0,0,0.2,0h0.2c0.2,0,0.5,0.2,0.6,0.2l0,0l0,0l0,0l0,0c0.3,0,0.5,0,0.6-0.2h0.2h0.2c0.2,0,0.2-0.2,0.3-0.2c0,0,0,0,0.2,0
		l118.8-68.5C940.3,586.4,940.7,584.5,940,583.1z"/>
	<path class="st1" d="M1119.2,181.2L824,10.9c-3.3-1.9-7.5-1.9-10.8,0L518,181.2c-3.3,1.9-5.4,5.6-5.4,9.4v340.8
		c0,3.8,2.1,7.5,5.4,9.4l295.2,170.3c1.7,1,3.5,1.4,5.4,1.4s3.8-0.5,5.4-1.4l295.2-170.3c3.3-1.9,5.4-5.6,5.4-9.4V190.6
		C1124.6,186.8,1122.5,183.1,1119.2,181.2z M533.9,524.9v-1.6l0,0V196.8L818.6,32.7L1103,196.8l0.2,328.4L818.6,689.3"/>
	<g>
		<line class="st0" x1="687.9" y1="577.8" x2="679.6" y2="573.2"/>
		<g>
			<path class="st1" d="M689.3,575.5c-2.7-1.5-5.5-3.1-8.2-4.6c-3.1-1.7-5.9,3-2.8,4.7c2.7,1.5,5.5,3.1,8.2,4.6
				C689.6,581.9,692.4,577.2,689.3,575.5L689.3,575.5z"/>
		</g>
	</g>
	<g>
		<line class="st0" x1="947" y1="579.6" x2="955.3" y2="575"/>
		<g>
			<path class="st1" d="M948.4,582c2.7-1.5,5.5-3.1,8.2-4.6c3.1-1.7,0.3-6.5-2.8-4.7c-2.7,1.5-5.5,3.1-8.2,4.6
				C942.5,579,945.3,583.7,948.4,582L948.4,582z"/>
		</g>
	</g>
</g>
<g id="boat">
	<g id="right">
		<g>
			<line class="st0" x1="283.6" y1="392.4" x2="429" y2="392.4"/>
			<g>
				<path class="st1" d="M283.6,395.6c42.5,0,85,0,127.5,0c6,0,11.9,0,17.9,0c4.2,0,4.2-6.5,0-6.5c-42.5,0-85,0-127.5,0
					c-6,0-11.9,0-17.9,0C279.5,389.1,279.5,395.6,283.6,395.6L283.6,395.6z"/>
			</g>
		</g>
		<g>
			<line class="st0" x1="283.6" y1="392.4" x2="319.4" y2="317.9"/>
			<g>
				<path class="st1" d="M286.5,394c11.9-24.8,23.8-49.7,35.7-74.5c1.8-3.8-3.8-7.1-5.6-3.3c-11.9,24.8-23.8,49.7-35.7,74.5
					C279,394.5,284.6,397.8,286.5,394L286.5,394z"/>
			</g>
		</g>
		<g>
			<line class="st0" x1="319.4" y1="317.9" x2="464.6" y2="317.9"/>
			<g>
				<path class="st1" d="M319.4,321.1c42.5,0,85,0,127.5,0c6,0,11.9,0,17.9,0c4.2,0,4.2-6.5,0-6.5c-42.5,0-85,0-127.5,0
					c-6,0-11.9,0-17.9,0C315.1,314.6,315.1,321.1,319.4,321.1L319.4,321.1z"/>
			</g>
		</g>
		<g>
			<line class="st0" x1="429" y1="392.4" x2="477.9" y2="290.4"/>
			<g>
				<path class="st1" d="M431.8,394c14.2-29.8,28.5-59.5,42.7-89.3c2-4.2,4.1-8.5,6.1-12.7c1.8-3.8-3.8-7.1-5.6-3.3
					c-14.2,29.8-28.5,59.5-42.7,89.3c-2,4.2-4.1,8.5-6.1,12.7C424.4,394.5,430,397.8,431.8,394L431.8,394z"/>
			</g>
		</g>
		<g>
			<line class="st0" x1="490.4" y1="264.9" x2="484.2" y2="277.7"/>
			<g>
				<path class="st1" d="M487.5,263.2c-2,4.3-4.1,8.5-6.1,12.8c-1.8,3.8,3.8,7.1,5.6,3.3c2-4.3,4.1-8.5,6.1-12.8
					C495,262.8,489.4,259.5,487.5,263.2L487.5,263.2z"/>
			</g>
		</g>
		<g>
			<line class="st0" x1="380.6" y1="368.7" x2="386.2" y2="368.7"/>
			<g>
				<path class="st1" d="M380.6,371.2c1.9,0,3.7,0,5.6,0c3.2,0,3.2-5,0-5c-1.9,0-3.7,0-5.6,0C377.5,366.2,377.5,371.2,380.6,371.2
					L380.6,371.2z"/>
			</g>
		</g>
		<g>
			<line class="st0" x1="399.1" y1="368.7" x2="440.4" y2="368.7"/>
			<g>
				<path class="st1" d="M399.1,371.2c13.7,0,27.4,0,41.2,0c3.2,0,3.2-5,0-5c-13.7,0-27.4,0-41.2,0C396,366.2,396,371.2,399.1,371.2
					L399.1,371.2z"/>
			</g>
		</g>
		<g>
			<line class="st0" x1="423.6" y1="343" x2="452.5" y2="343"/>
			<g>
				<path class="st1" d="M423.6,345.5c9.6,0,19.2,0,28.8,0c3.2,0,3.2-5,0-5c-9.6,0-19.2,0-28.8,0
					C420.5,340.5,420.5,345.5,423.6,345.5L423.6,345.5z"/>
			</g>
		</g>
		<g>
			<line class="st0" x1="295.8" y1="368.7" x2="367.5" y2="368.7"/>
			<g>
				<path class="st1" d="M295.8,371.2c23.9,0,47.8,0,71.6,0c3.2,0,3.2-5,0-5c-23.9,0-47.8,0-71.6,0
					C292.5,366.2,292.5,371.2,295.8,371.2L295.8,371.2z"/>
			</g>
		</g>
		<g>
			<line class="st0" x1="309.5" y1="343" x2="392" y2="343"/>
			<g>
				<path class="st1" d="M309.5,345.5c27.5,0,55,0,82.4,0c3.2,0,3.2-5,0-5c-27.5,0-55,0-82.4,0C306.4,340.5,306.4,345.5,309.5,345.5
					L309.5,345.5z"/>
			</g>
		</g>
		<g>
			<line class="st0" x1="405.5" y1="343" x2="411" y2="343"/>
			<g>
				<path class="st1" d="M405.5,345.5c1.9,0,3.7,0,5.6,0c3.2,0,3.2-5,0-5c-1.9,0-3.7,0-5.6,0C402.2,340.5,402.2,345.5,405.5,345.5
					L405.5,345.5z"/>
			</g>
		</g>
	</g>
	<g id="left">
		<g>
			<line class="st0" x1="239.1" y1="392.4" x2="274.8" y2="317.9"/>
			<g>
				<path class="st1" d="M241.9,394c11.9-24.8,23.8-49.7,35.7-74.5c1.8-3.8-3.8-7.1-5.6-3.3c-11.9,24.8-23.8,49.7-35.7,74.5
					C234.4,394.5,240.1,397.8,241.9,394L241.9,394z"/>
			</g>
		</g>
		<g>
			<line class="st0" x1="192.9" y1="392.4" x2="131.2" y2="263.8"/>
			<g>
				<path class="st1" d="M195.6,390.7c-18-37.6-36-75.1-54-112.7c-2.5-5.3-5.1-10.6-7.6-15.9c-1.8-3.8-7.4-0.5-5.6,3.3
					c18,37.6,36,75.1,54,112.7c2.5,5.3,5.1,10.6,7.6,15.9C191.9,397.8,197.4,394.5,195.6,390.7L195.6,390.7z"/>
			</g>
		</g>
		<g>
			<line class="st0" x1="274.8" y1="317.9" x2="157.1" y2="317.9"/>
			<g>
				<path class="st1" d="M274.8,314.6c-34.3,0-68.6,0-102.9,0c-4.9,0-9.7,0-14.6,0c-4.2,0-4.2,6.5,0,6.5c34.3,0,68.6,0,102.9,0
					c4.9,0,9.7,0,14.6,0C279,321.1,279,314.6,274.8,314.6L274.8,314.6z"/>
			</g>
		</g>
		<g>
			<line class="st0" x1="239.1" y1="392.4" x2="192.9" y2="392.4"/>
			<g>
				<path class="st1" d="M239.1,389.1c-15.4,0-30.8,0-46.2,0c-4.2,0-4.2,6.5,0,6.5c15.4,0,30.8,0,46.2,0
					C243.2,395.6,243.2,389.1,239.1,389.1L239.1,389.1z"/>
			</g>
		</g>
		<g>
			<line class="st0" x1="169.2" y1="343" x2="262.6" y2="343"/>
			<g>
				<path class="st1" d="M169.2,345.5c27.3,0,54.6,0,81.9,0c3.9,0,7.7,0,11.6,0c3.2,0,3.2-5,0-5c-27.3,0-54.6,0-81.9,0
					c-3.9,0-7.7,0-11.6,0C165.9,340.5,165.9,345.5,169.2,345.5L169.2,345.5z"/>
			</g>
		</g>
		<g>
			<line class="st0" x1="181.6" y1="368.7" x2="249.1" y2="368.7"/>
			<g>
				<path class="st1" d="M181.6,371.2c22.5,0,45,0,67.5,0c3.2,0,3.2-5,0-5c-22.5,0-45,0-67.5,0C178.4,366.2,178.4,371.2,181.6,371.2
					L181.6,371.2z"/>
			</g>
		</g>
	</g>
	<g>
		<g>
			<path class="st1" d="M327.8,277.4l-17-8.2c-2.3-1-4.2-0.1-4.3,0c-1.4,0.7-2.3,1.9-2.6,3.4l-2.3,11.2c-0.3,1.6,0.2,3.2,1.2,4.4
				L289.9,315c-0.7,1.5-0.1,3.4,1.4,4c2.2,1,3.7-0.7,4-1.4l12.7-26.5l4.3,2l-66,137.5c-0.9,1.7-3,0.6-3,0.6s-2.2-0.9-1.2-2.7
				l43.6-90.7c0.7-1.5,0.1-3.3-1.4-4s-3.3-0.1-4,1.4l-30.9,64.3c-2.1-0.5-4.4-0.1-6.3,1.3l-25.4,19c-0.6,0.5-1.6,1.5-3.1,4.5
				l-27.5,57.2c-0.9,1.8-1,3.8-0.3,5.7s2,3.4,3.8,4.3l38.9,18.7c1.8,0.9,3.8,1,5.7,0.3s3.4-2,4.3-3.8l27.5-57.1
				c1.5-3.1,1.7-4.5,1.6-5.4l-1-31.7c-0.1-2.3-1.2-4.3-2.9-5.7l53.5-111.3c0.7,0,2.4,0.1,4.2-1.8l7.3-8.8c1-1.2,1.4-2.7,1-4.2
				C330.1,279.3,329.1,278.1,327.8,277.4z M262.4,444.4c0,0.2-0.2,0.9-1,2.7l-27.6,57.2c-0.2,0.5-0.6,0.6-0.8,0.7
				c-0.2,0.1-0.6,0.2-1.1-0.1l-38.8-18.6c-0.5-0.2-0.6-0.6-0.7-0.8s-0.2-0.6,0.1-1.1l27.5-57.2c0.8-1.6,1.3-2.2,1.4-2.4l24.8-18.6
				l-9.6,19.9c-3.7,7.7,4.1,10.8,4.1,10.8s7.5,3.4,11-3.5l9.6-19.9L262.4,444.4z M318,289.3l-10.4-5l1.8-9l14.4,6.9L318,289.3z"/>
		</g>
	</g>
	<g>
		<g>
			<path class="st1" d="M290,321.7c-1.5-0.7-3.3-0.1-4,1.4l-2.1,4.3c-0.7,1.5-0.1,3.4,1.4,4c2,0.9,3.7-0.7,4-1.4l2.1-4.3
				C292.1,324.2,291.5,322.4,290,321.7z"/>
		</g>
	</g>
	<g>
		<g>
			<path class="st1" d="M243.4,471c-1.5-0.7-3.3-0.1-4,1.4l-7.4,15.3c-0.7,1.5-0.1,3.4,1.4,4c2.1,0.9,3.7-0.7,4-1.4l7.4-15.3
				C245.6,473.5,244.9,471.7,243.4,471z"/>
		</g>
	</g>
	<g>
		<g>
			<path class="st1" d="M249.4,458.5c-1.5-0.7-3.3-0.1-4,1.4l-2.3,4.8c-0.7,1.5,0,3.2,1.4,4c1.8,1,3.7-0.7,4-1.4l2.3-4.8
				C251.6,461,250.9,459.2,249.4,458.5z"/>
		</g>
	</g>
</g>
<g id="words">
	<g id="nodeschool-banner">
		<path class="st1" d="M156.6,198.5c1.8,0,3-1.4,3-3V180l12.6,16.6c0.8,1.1,1.8,1.9,3.3,1.9h0.3c1.8,0,3.3-1.4,3.3-3.3v-22.9
			c0-1.8-1.4-3-3-3c-1.8,0-3,1.4-3,3v14.8l-12.2-16.2c-0.8-1.1-1.8-1.9-3.3-1.9h-0.7c-1.8,0-3.3,1.4-3.3,3.3v22.9
			C153.5,197.2,154.8,198.5,156.6,198.5L156.6,198.5z"/>
		<path class="st1" d="M199.9,198.8c8.9,0,15.5-6.7,15.5-14.8l0,0c0-8.2-6.3-14.8-15.2-14.8s-15.5,6.7-15.5,14.8l0,0
			C184.7,192.2,191,198.8,199.9,198.8z M191.4,183.9c0-5.1,3.4-8.9,8.8-8.9c5.1,0,8.8,4.1,8.8,9.2l0,0c0,5.1-3.4,8.9-8.8,8.9
			C195,192.9,191.4,188.9,191.4,183.9L191.4,183.9z"/>
		<path class="st1" d="M224.2,198.3h8.1c9.2,0,15.2-6.3,15.2-14.4l0,0c0-8.1-6.3-14.4-15.2-14.4h-8.1c-1.8,0-3.3,1.4-3.3,3.3V195
			C221.2,197,222.4,198.3,224.2,198.3z M227.5,175.2h4.8c5.2,0,8.8,3.4,8.8,8.8l0,0c0,5.1-3.4,8.8-8.8,8.8h-4.8V175.2L227.5,175.2z"
			/>
		<path class="st1" d="M256.4,198.3h16.2c1.5,0,2.9-1.4,2.9-2.9s-1.4-2.9-2.9-2.9h-13v-6.2h11c1.5,0,2.9-1.4,2.9-2.9
			s-1.4-2.9-2.9-2.9h-11v-5.9h12.9c1.5,0,2.9-1.4,2.9-2.9s-1.4-2.9-2.9-2.9h-16.1c-1.8,0-3.3,1.4-3.3,3.3v22.5
			C253.4,197,254.8,198.3,256.4,198.3L256.4,198.3z"/>
		<path class="st1" d="M280.5,195.3c3.3,2.3,7,3.4,11,3.4c6.3,0,10.7-3.3,10.7-8.9l0,0c0-5.1-3.3-7.1-9.2-8.8
			c-5.1-1.4-6.3-1.9-6.3-3.7l0,0c0-1.4,1.4-2.6,3.7-2.6c1.9,0,4,0.7,6.2,1.9c0.4,0.3,1.1,0.4,1.5,0.4c1.8,0,3-1.4,3-2.9
			c0-1.4-0.7-2.2-1.4-2.6c-2.6-1.8-5.6-2.6-9.2-2.6c-5.9,0-10,3.4-10,8.8l0,0c0,5.6,3.7,7.4,9.6,8.8c4.8,1.4,5.9,1.9,5.9,3.7l0,0
			c0,1.8-1.5,2.6-4.1,2.6c-2.9,0-5.2-1.1-7.4-2.6c-0.4-0.3-1.1-0.7-1.8-0.7c-1.8,0-3,1.4-3,2.9C279.2,194,279.9,194.8,280.5,195.3
			L280.5,195.3z"/>
		<path class="st1" d="M320.9,198.8c4.5,0,7.7-1.4,10.3-3.7c0.7-0.4,1.1-1.4,1.1-2.2c0-1.5-1.4-2.9-3-2.9c-0.7,0-1.4,0.3-1.9,0.7
			c-1.8,1.5-3.4,2.2-6.3,2.2c-5.1,0-8.2-4.1-8.2-9.2l0,0c0-5.1,3.4-8.9,8.2-8.9c2.2,0,4.1,0.7,5.9,1.9c0.4,0.3,1.1,0.7,1.9,0.7
			c1.8,0,3-1.4,3-3c0-1.1-0.7-1.9-1.4-2.6c-2.3-1.8-5.2-2.9-9.6-2.9c-8.9,0-15.1,6.7-15.1,14.8l0,0
			C306.2,192.2,312.6,198.8,320.9,198.8L320.9,198.8z"/>
		<path class="st1" d="M341.2,198.5c1.8,0,3.3-1.4,3.3-3.3v-8.7h11.8v8.8c0,1.8,1.4,3.3,3.3,3.3c1.8,0,3.3-1.4,3.3-3.3v-22.9
			c0-1.8-1.4-3.3-3.3-3.3c-1.8,0-3.3,1.4-3.3,3.3v8.5h-11.8v-8.5c0-1.8-1.4-3.3-3.3-3.3c-1.8,0-3.3,1.4-3.3,3.3v22.9
			C337.9,197.2,339.2,198.5,341.2,198.5z"/>
		<path class="st1" d="M383.2,198.8c8.9,0,15.2-6.7,15.2-14.8l0,0c0-8.2-6.3-14.8-15.2-14.8s-15.5,6.7-15.5,14.8l0,0
			C368,192.2,374.3,198.8,383.2,198.8z M374.6,183.9c0-5.1,3.4-8.9,8.8-8.9c5.1,0,8.8,4.1,8.8,9.2l0,0c0,5.1-3.4,8.9-8.8,8.9
			C378.3,192.9,374.6,188.9,374.6,183.9L374.6,183.9z"/>
		<path class="st1" d="M418.5,198.8c8.9,0,15.5-6.7,15.5-14.8l0,0c0-8.2-6.3-14.8-15.2-14.8s-15.5,6.7-15.5,14.8l0,0
			C403.1,192.2,409.4,198.8,418.5,198.8z M409.7,183.9c0-5.1,3.4-8.9,8.8-8.9c5.1,0,8.8,4.1,8.8,9.2l0,0c0,5.1-3.4,8.9-8.8,8.9
			C413.4,192.9,409.7,188.9,409.7,183.9L409.7,183.9z"/>
		<path class="st1" d="M442.6,198.3h14.8c1.5,0,2.9-1.4,2.9-2.9s-1.4-2.9-2.9-2.9h-11.8v-19.9c0-1.8-1.4-3.3-3.3-3.3
			c-1.8,0-3.3,1.4-3.3,3.3v22.5C439.3,197,440.8,198.3,442.6,198.3L442.6,198.3z"/>
	</g>
	<g id="ldz">
		<text transform="matrix(0.8232 -0.5678 0.5678 0.8232 233.7654 570.8778)" class="st1 st2 st3">L</text>
		<text transform="matrix(1 0 0 1 292.7191 556.5724)" class="st1 st2 st3">D</text>
		<text transform="matrix(0.8232 0.5678 -0.5678 0.8232 357.847 558.6159)" class="st1 st2 st3">Z</text>
	</g>
</g>
</svg>
